<?xml version="1.0" encoding="UTF-8" standalone="no"?>
<svg
   xmlns:dc="http://purl.org/dc/elements/1.1/"
   xmlns:cc="http://creativecommons.org/ns#"
   xmlns:rdf="http://www.w3.org/1999/02/22-rdf-syntax-ns#"
   xmlns:svg="http://www.w3.org/2000/svg"
   xmlns="http://www.w3.org/2000/svg"
   xmlns:sodipodi="http://sodipodi.sourceforge.net/DTD/sodipodi-0.dtd"
   xmlns:inkscape="http://www.inkscape.org/namespaces/inkscape"
   viewBox="0 0 16 16"
   id="svg2"
   version="1.1"
   inkscape:version="0.91 r13725"
   sodipodi:docname="close.svg">
  <metadata
     id="metadata12">
    <rdf:RDF>
      <cc:Work
         rdf:about="">
        <dc:format>image/svg+xml</dc:format>
        <dc:type
           rdf:resource="http://purl.org/dc/dcmitype/StillImage" />
      </cc:Work>
    </rdf:RDF>
  </metadata>
  <defs
     id="defs10" />
  <sodipodi:namedview
     pagecolor="#ffffff"
     bordercolor="#666666"
     borderopacity="1"
     objecttolerance="10"
     gridtolerance="10"
     guidetolerance="10"
     inkscape:pageopacity="0"
     inkscape:pageshadow="2"
     inkscape:window-width="1615"
     inkscape:window-height="1026"
     id="namedview8"
     showgrid="false"
     inkscape:zoom="41.7193"
     inkscape:cx="4.0103108"
     inkscape:cy="3.9801428"
     inkscape:window-x="65"
     inkscape:window-y="24"
     inkscape:window-maximized="1"
     inkscape:current-layer="svg2" />
  <g
     transform="matrix(0.92211031,0,0,0.92211031,-37.182861,-700.18072)"
     id="g4">
    <path
       d="m 45,764 1,0 c 0.01,0 0.021,0 0.031,0 0.255,0.011 0.51,0.129 0.688,0.313 l 2.281,2.281 2.313,-2.281 c 0.266,-0.231 0.447,-0.306 0.688,-0.313 l 1,0 0,1 c 0,0.286 -0.034,0.551 -0.25,0.75 l -2.281,2.281 2.25,2.25 c 0.188,0.188 0.281,0.453 0.281,0.719 l 0,1 -1,0 c -0.265,0 -0.531,-0.093 -0.719,-0.281 l -2.281,-2.281 -2.281,2.281 C 46.532,771.907 46.267,772 46.001,772 l -1,0 0,-1 c 0,-0.265 0.093,-0.531 0.281,-0.719 l 2.281,-2.25 -2.281,-2.281 c -0.211,-0.195 -0.303,-0.469 -0.281,-0.75 l 0,-1 z"
       style="color:#bebebe;fill:#bebebe"
       id="path6"
       inkscape:connector-curvature="0" />
  </g>
</svg>
