<?xml version="1.0" encoding="UTF-8" standalone="no"?>
<svg
   xmlns:dc="http://purl.org/dc/elements/1.1/"
   xmlns:cc="http://creativecommons.org/ns#"
   xmlns:rdf="http://www.w3.org/1999/02/22-rdf-syntax-ns#"
   xmlns:svg="http://www.w3.org/2000/svg"
   xmlns="http://www.w3.org/2000/svg"
   xmlns:sodipodi="http://sodipodi.sourceforge.net/DTD/sodipodi-0.dtd"
   xmlns:inkscape="http://www.inkscape.org/namespaces/inkscape"
   viewBox="0 0 16 16"
   id="svg2"
   version="1.1"
   inkscape:version="0.91 r13725"
   sodipodi:docname="fullscreen.svg">
  <metadata
     id="metadata16">
    <rdf:RDF>
      <cc:Work
         rdf:about="">
        <dc:format>image/svg+xml</dc:format>
        <dc:type
           rdf:resource="http://purl.org/dc/dcmitype/StillImage" />
      </cc:Work>
    </rdf:RDF>
  </metadata>
  <defs
     id="defs14" />
  <sodipodi:namedview
     pagecolor="#ffffff"
     bordercolor="#666666"
     borderopacity="1"
     objecttolerance="10"
     gridtolerance="10"
     guidetolerance="10"
     inkscape:pageopacity="0"
     inkscape:pageshadow="2"
     inkscape:window-width="855"
     inkscape:window-height="480"
     id="namedview12"
     showgrid="false"
     inkscape:zoom="14.75"
     inkscape:cx="8"
     inkscape:cy="8"
     inkscape:window-x="647"
     inkscape:window-y="397"
     inkscape:window-maximized="0"
     inkscape:current-layer="svg2" />
  <g
     id="g7052"
     transform="matrix(0.55932203,0,0,0.55932203,3.5254238,3.5254238)">
    <path
       id="path4"
       style="fill:#bebebe;fill-opacity:1;stroke:none"
       d="M 2,1 7,1 7,3 4,3 C 3.459,3 3,3.416 3,4 L 3,7 1,7 1,2 C 1,1.477 1.459,1 2,1 Z"
       inkscape:connector-curvature="0" />
    <path
       id="path6"
       style="fill:#bebebe;fill-opacity:1;stroke:none"
       d="m 1,14 0,-5 2,0 0,3 c 0,0.541 0.416,1 1,1 l 3,0 0,2 -5,0 C 1.477,15 1,14.541 1,14 Z"
       inkscape:connector-curvature="0" />
    <path
       id="path8"
       style="fill:#bebebe;fill-opacity:1;stroke:none"
       d="m 14,1 -5,0 0,2 3,0 c 0.541,0 1,0.416 1,1 l 0,3 2,0 0,-5 C 15,1.477 14.541,1 14,1 Z"
       inkscape:connector-curvature="0" />
    <path
       id="path10"
       style="fill:#bebebe;fill-opacity:1;stroke:none"
       d="m 15,14 0,-5 -2,0 0,3 c 0,0.541 -0.416,1 -1,1 l -3,0 0,2 5,0 c 0.523,0 1,-0.459 1,-1 z"
       inkscape:connector-curvature="0" />
  </g>
</svg>
