<svg xmlns="http://www.w3.org/2000/svg" viewBox="0 0 16.0853 16.0243"><g fill="#bebebe"><path d="M7.607 8.96v2.907H6.444v-1.745a.574.574 0 0 0-.582-.581H4.117V8.377h2.909c.304 0 .581.267.581.582z"/><path d="M4.012 11.878c.309.309.603.23.822.008l.823-.83L6.89 9.821l-.823-.823-2.056 2.056a.597.597 0 0 0 0 .823zM8.478 8.96v2.907H9.64v-1.745c0-.314.242-.581.582-.581h1.745V8.377H9.06a.597.597 0 0 0-.582.582z"/><path d="M12.074 11.878c-.31.309-.604.23-.823.008l-.823-.83-1.233-1.234.822-.823 2.057 2.056c.215.216.222.6 0 .823z"/><g><path d="M7.607 7.065V4.157H6.444v1.745a.574.574 0 0 1-.582.582H4.117v1.163h2.909a.597.597 0 0 0 .581-.582z"/><path d="M4.012 4.146c.309-.309.603-.23.822-.008l.823.83L6.89 6.204l-.823.822L4.012 4.97a.597.597 0 0 1 0-.823z"/></g><g><path d="M8.478 7.065V4.157H9.64v1.745c0 .315.242.582.582.582h1.745v1.163H9.06a.597.597 0 0 1-.582-.582z"/><path d="M12.074 4.146c-.31-.309-.604-.23-.823-.008l-.823.83-1.233 1.235.822.822 2.057-2.056a.597.597 0 0 0 0-.823z"/></g></g></svg>