<?xml version="1.0" encoding="UTF-8" standalone="no"?>
<svg
   xmlns:dc="http://purl.org/dc/elements/1.1/"
   xmlns:cc="http://creativecommons.org/ns#"
   xmlns:rdf="http://www.w3.org/1999/02/22-rdf-syntax-ns#"
   xmlns:svg="http://www.w3.org/2000/svg"
   xmlns="http://www.w3.org/2000/svg"
   xmlns:sodipodi="http://sodipodi.sourceforge.net/DTD/sodipodi-0.dtd"
   xmlns:inkscape="http://www.inkscape.org/namespaces/inkscape"
   viewBox="0 0 16.0853 16.0243"
   id="svg2"
   version="1.1"
   inkscape:version="0.91 r13725"
   sodipodi:docname="restore.svg">
  <metadata
     id="metadata32">
    <rdf:RDF>
      <cc:Work
         rdf:about="">
        <dc:format>image/svg+xml</dc:format>
        <dc:type
           rdf:resource="http://purl.org/dc/dcmitype/StillImage" />
      </cc:Work>
    </rdf:RDF>
  </metadata>
  <defs
     id="defs30" />
  <sodipodi:namedview
     pagecolor="#ffffff"
     bordercolor="#666666"
     borderopacity="1"
     objecttolerance="10"
     gridtolerance="10"
     guidetolerance="10"
     inkscape:pageopacity="0"
     inkscape:pageshadow="2"
     inkscape:window-width="1615"
     inkscape:window-height="1026"
     id="namedview28"
     showgrid="false"
     inkscape:zoom="64"
     inkscape:cx="6.366192"
     inkscape:cy="7.2960324"
     inkscape:window-x="65"
     inkscape:window-y="24"
     inkscape:window-maximized="1"
     inkscape:current-layer="svg2"
     showguides="true"
     inkscape:guide-bbox="true">
    <sodipodi:guide
       position="8.1096307,4.8613592"
       orientation="0,1"
       id="guide7102" />
    <sodipodi:guide
       position="2.3671874,6.7812502"
       orientation="1,0"
       id="guide7139" />
  </sodipodi:namedview>
  <g
     id="g7198"
     transform="matrix(1.0399264,0,0,1.0399264,-0.18226389,-0.28081551)">
    <g
       id="g7162">
      <path
         transform="matrix(0.55932203,0,0,0.55932203,3.568074,3.9438236)"
         inkscape:connector-curvature="0"
         d="m 7.0129751,8.834546 0,5 -2,0 0,-3 c 0,-0.541 -0.416,-1 -1,-1 l -3,0 0,-2 5,0 c 0.523,0 1,0.459 1,1 z"
         style="fill:#bebebe;fill-opacity:1;stroke:none"
         id="path7159" />
      <path
         sodipodi:nodetypes="cscccsc"
         id="path7143"
         style="fill:#bebebe;fill-opacity:1;stroke:none"
         d="m 4.0329258,11.691988 c 0.2971569,0.297157 0.5805511,0.220648 0.7910956,0.008 L 5.6149307,10.900991 6.801432,9.7144897 6.0104311,8.9234889 4.0329291,10.900991 c -0.2068467,0.206847 -0.2139657,0.577035 0,0.791001 z"
         inkscape:connector-curvature="0" />
    </g>
    <g
       transform="matrix(-1,0,0,1,15.818262,0)"
       id="g7166">
      <path
         id="path7168"
         style="fill:#bebebe;fill-opacity:1;stroke:none"
         d="m 7.0129751,8.834546 0,5 -2,0 0,-3 c 0,-0.541 -0.416,-1 -1,-1 l -3,0 0,-2 5,0 c 0.523,0 1,0.459 1,1 z"
         inkscape:connector-curvature="0"
         transform="matrix(0.55932203,0,0,0.55932203,3.568074,3.9438236)" />
      <path
         inkscape:connector-curvature="0"
         d="m 4.0329258,11.691988 c 0.2971569,0.297157 0.5805511,0.220648 0.7910956,0.008 L 5.6149307,10.900991 6.801432,9.7144897 6.0104311,8.9234889 4.0329291,10.900991 c -0.2068467,0.206847 -0.2139657,0.577035 0,0.791001 z"
         style="fill:#bebebe;fill-opacity:1;stroke:none"
         id="path7170"
         sodipodi:nodetypes="cscccsc" />
    </g>
    <g
       transform="matrix(1,0,0,-1,0,15.949139)"
       id="g7172">
      <path
         id="path7174"
         style="fill:#bebebe;fill-opacity:1;stroke:none"
         d="m 7.0129751,8.834546 0,5 -2,0 0,-3 c 0,-0.541 -0.416,-1 -1,-1 l -3,0 0,-2 5,0 c 0.523,0 1,0.459 1,1 z"
         inkscape:connector-curvature="0"
         transform="matrix(0.55932203,0,0,0.55932203,3.568074,3.9438236)" />
      <path
         inkscape:connector-curvature="0"
         d="m 4.0329258,11.691988 c 0.2971569,0.297157 0.5805511,0.220648 0.7910956,0.008 L 5.6149307,10.900991 6.801432,9.7144897 6.0104311,8.9234889 4.0329291,10.900991 c -0.2068467,0.206847 -0.2139657,0.577035 0,0.791001 z"
         style="fill:#bebebe;fill-opacity:1;stroke:none"
         id="path7176"
         sodipodi:nodetypes="cscccsc" />
    </g>
    <g
       id="g7178"
       transform="matrix(-1,0,0,-1,15.818262,15.949139)">
      <path
         transform="matrix(0.55932203,0,0,0.55932203,3.568074,3.9438236)"
         inkscape:connector-curvature="0"
         d="m 7.0129751,8.834546 0,5 -2,0 0,-3 c 0,-0.541 -0.416,-1 -1,-1 l -3,0 0,-2 5,0 c 0.523,0 1,0.459 1,1 z"
         style="fill:#bebebe;fill-opacity:1;stroke:none"
         id="path7180" />
      <path
         sodipodi:nodetypes="cscccsc"
         id="path7182"
         style="fill:#bebebe;fill-opacity:1;stroke:none"
         d="m 4.0329258,11.691988 c 0.2971569,0.297157 0.5805511,0.220648 0.7910956,0.008 L 5.6149307,10.900991 6.801432,9.7144897 6.0104311,8.9234889 4.0329291,10.900991 c -0.2068467,0.206847 -0.2139657,0.577035 0,0.791001 z"
         inkscape:connector-curvature="0" />
    </g>
  </g>
</svg>
