<?xml version="1.0" encoding="UTF-8" standalone="no"?>
<svg
   xmlns:dc="http://purl.org/dc/elements/1.1/"
   xmlns:cc="http://creativecommons.org/ns#"
   xmlns:rdf="http://www.w3.org/1999/02/22-rdf-syntax-ns#"
   xmlns:svg="http://www.w3.org/2000/svg"
   xmlns="http://www.w3.org/2000/svg"
   xmlns:sodipodi="http://sodipodi.sourceforge.net/DTD/sodipodi-0.dtd"
   xmlns:inkscape="http://www.inkscape.org/namespaces/inkscape"
   viewBox="0 0 16 16"
   id="svg2"
   version="1.1"
   inkscape:version="0.91 r13725"
   sodipodi:docname="speaker.svg">
  <metadata
     id="metadata18">
    <rdf:RDF>
      <cc:Work
         rdf:about="">
        <dc:format>image/svg+xml</dc:format>
        <dc:type
           rdf:resource="http://purl.org/dc/dcmitype/StillImage" />
        <dc:title />
      </cc:Work>
    </rdf:RDF>
  </metadata>
  <defs
     id="defs16" />
  <sodipodi:namedview
     pagecolor="#ffffff"
     bordercolor="#666666"
     borderopacity="1"
     objecttolerance="10"
     gridtolerance="10"
     guidetolerance="10"
     inkscape:pageopacity="0"
     inkscape:pageshadow="2"
     inkscape:window-width="1615"
     inkscape:window-height="1026"
     id="namedview14"
     showgrid="false"
     inkscape:zoom="29.5"
     inkscape:cx="8.2248339"
     inkscape:cy="7.4195368"
     inkscape:window-x="65"
     inkscape:window-y="24"
     inkscape:window-maximized="1"
     inkscape:current-layer="svg2" />
  <g
     id="g7051"
     transform="matrix(0.56143041,0,0,0.56143041,3.5086619,3.5085567)">
    <path
       id="path4"
       style="fill:#bebebe;fill-opacity:1"
       d="M 6,2 2,6 2,10 6,14 6,9 7,8 6,7 Z"
       inkscape:connector-curvature="0" />
    <path
       id="path6"
       style="fill:#bebebe;fill-opacity:1"
       d="M 1.3,5 C 0.217,5 0,6.163 0,7.4 L 0,8.6 C 0,9.837 0.243,11 1.3,11 L 3,11 3,5"
       inkscape:connector-curvature="0" />
    <path
       id="path8"
       style="opacity:1;fill:#bebebe;fill-opacity:1;fill-rule:evenodd;stroke:none"
       d="M 13.14,1 11.726,2.414 C 12.808,3.496 13.99,5.447 14,8 c 0,2.551 -1.193,4.506 -2.274,5.586 L 13.14,15 C 14.595,13.545 16.019,11 15.999,8 16.034,5 14.594,2.454 13.14,1"
       inkscape:connector-curvature="0" />
    <path
       id="path10"
       style="opacity:1;fill:#bebebe;fill-opacity:1;fill-rule:evenodd;stroke:none"
       d="M 11,3.116 9.59,4.526 C 10.373,5.309 11,6.569 11,8 11,9.431 10.373,10.691 9.59,11.474 L 11,12.884 C 12.276,11.608 13,9.854 13,8 13,6.154 12.273,4.389 11,3.116"
       inkscape:connector-curvature="0" />
    <path
       id="path12"
       style="opacity:1;fill:#bebebe;fill-opacity:1;fill-rule:evenodd;stroke:none"
       d="M 8.629,5 7.209,6.41 C 8,7.057 8,7.806 8,8 8,8.193 7.982,8.941 7.209,9.59 L 8.629,11 C 9.847,9.953 10,8.598 10,8 10,7.4 9.854,6.063 8.629,5"
       inkscape:connector-curvature="0" />
  </g>
</svg>
