<svg xmlns="http://www.w3.org/2000/svg" viewBox="0 0 16 16"><g fill="#bebebe"><path d="M6.877 4.631L4.632 6.877v2.246l2.245 2.246V8.56L7.44 8l-.562-.561z"/><path d="M4.239 6.316c-.609 0-.73.653-.73 1.347v.674c0 .694.136 1.347.73 1.347h.954V6.316"/><path d="M10.886 4.07l-.794.794A4.504 4.504 0 0 1 11.369 8a4.48 4.48 0 0 1-1.277 3.136l.794.794c.817-.817 1.616-2.246 1.605-3.93.02-1.684-.789-3.114-1.605-3.93" fill-rule="evenodd"/><path d="M9.684 5.258l-.791.792c.44.44.791 1.147.791 1.95a2.81 2.81 0 0 1-.791 1.95l.791.792A3.87 3.87 0 0 0 10.807 8a3.883 3.883 0 0 0-1.123-2.742" fill-rule="evenodd"/><path d="M8.353 6.316l-.797.791C8 7.471 8 7.891 8 8c0 .108-.01.528-.444.893l.797.791A2.22 2.22 0 0 0 9.123 8c0-.337-.082-1.087-.77-1.684" fill-rule="evenodd"/></g></svg>