<svg xmlns="http://www.w3.org/2000/svg" viewBox="0 0 16 16"><path d="M6 2L2 6v4l4 4V9l1-1-1-1z" fill="#44433f"/><path d="M1.3 5C.217 5 0 6.163 0 7.4v1.2C0 9.837.243 11 1.3 11H3V5" fill="#44433f"/><path d="M13.14 1l-1.414 1.414C12.808 3.496 13.99 5.447 14 8c0 2.551-1.193 4.506-2.274 5.586L13.14 15c1.455-1.455 2.879-4 2.859-7 .035-3-1.405-5.546-2.859-7" fill="#44433f" fill-rule="evenodd"/><path d="M11 3.116l-1.41 1.41C10.373 5.309 11 6.569 11 8s-.627 2.691-1.41 3.474l1.41 1.41A6.895 6.895 0 0 0 13 8a6.916 6.916 0 0 0-2-4.884" fill="#44433f" fill-rule="evenodd"/><path d="M8.629 5l-1.42 1.41C8 7.057 8 7.806 8 8c0 .193-.018.941-.791 1.59L8.629 11C9.847 9.953 10 8.598 10 8c0-.6-.146-1.937-1.371-3" fill="#44433f" fill-rule="evenodd"/></svg>